<svg width="112" height="117" viewBox="0 0 112 117" fill="none" xmlns="http://www.w3.org/2000/svg">
<path opacity="0.5" d="M50.5723 114.189L2.86131 66.4562C-0.157547 63.4359 -0.157547 58.5378 2.86131 55.5176L50.5723 7.78507C53.5911 4.76484 58.487 4.76484 61.5059 7.78507L109.217 55.5176C112.236 58.5378 112.236 63.4359 109.217 66.4562L61.5059 114.189C58.487 117.209 53.5911 117.209 50.5723 114.189Z" fill="#75C6EF"/>
<path d="M50.5723 108.835L2.86131 61.1026C-0.157547 58.0824 -0.157547 53.1843 2.86131 50.1641L50.5723 2.43155C53.5911 -0.588675 58.487 -0.588675 61.5059 2.43155L109.217 50.1641C112.236 53.1843 112.236 58.0824 109.217 61.1026L61.5059 108.835C58.487 111.857 53.5911 111.857 50.5723 108.835Z" fill="#75C6EF"/>
<path d="M77.6654 46.4894H65.1804V33.9987C65.1804 28.9694 61.0669 24.854 56.0399 24.854C51.0128 24.854 46.8993 28.9694 46.8993 33.9987V46.4894H34.4143C29.3872 46.4894 25.2737 50.6048 25.2737 55.6341C25.2737 60.6634 29.3872 64.7788 34.4143 64.7788H46.8993V77.2694C46.8993 82.2987 51.0128 86.4141 56.0399 86.4141C61.0669 86.4141 65.1804 82.2987 65.1804 77.2694V64.7788H77.6654C82.6924 64.7788 86.806 60.6634 86.806 55.6341C86.806 50.6033 82.6924 46.4894 77.6654 46.4894Z" fill="white"/>
</svg>
