<svg width="110" height="234" viewBox="0 0 110 234" fill="none" xmlns="http://www.w3.org/2000/svg">
<path d="M55.7737 0.985783C54.8514 0.574537 54.293 0.991695 53.4149 1.0993C52.5074 1.20985 52.5722 0.586347 51.6911 0.318079C50.9839 0.102875 50.3268 0.751423 49.8406 1.3425C50.066 1.06981 48.1581 0.384393 47.7559 0.633499C47.0103 1.09486 47.3256 2.27407 46.1455 1.99401C45.3602 1.80681 44.5278 1.69479 43.7616 1.95717C42.9955 2.22101 42.3193 2.94916 42.309 3.81145C41.1774 3.94559 39.9899 4.10182 39.0661 4.81376C38.1424 5.5257 37.6178 6.99086 38.2529 8.0035C36.9769 8.39263 35.7217 9.11195 35.013 10.3133C34.3028 11.5146 34.3029 13.2627 35.2694 14.237C35.4432 14.4125 35.6524 14.5746 35.7231 14.8193C35.8631 15.2998 35.4093 15.7169 35.0439 16.0324C34.182 16.7753 33.4999 17.841 33.4395 19.0246C33.3805 20.2082 34.0833 21.4641 35.1618 21.722C34.6726 22.3912 34.1703 23.0928 34.0111 23.9256C33.8535 24.7585 34.157 25.7578 34.8937 26.0733C35.4668 26.3194 36.3213 26.2384 36.4907 26.8751C36.5467 27.083 36.4952 27.3026 36.4554 27.5148C36.3081 28.2961 36.3184 29.1539 36.7059 29.8334C37.0948 30.5129 37.942 30.9286 38.6182 30.597C38.6698 31.2603 38.7287 31.953 39.0602 32.5146C39.5818 33.3976 40.6853 33.7336 41.6445 33.545C42.6051 33.3578 43.4419 32.7402 44.1845 32.0607C45.3204 33.4035 47.6822 33.1087 48.4984 31.5226C49.4133 32.0326 49.6638 33.517 50.6569 33.8162C51.6676 34.1213 52.5 32.9863 53.0672 32.04C53.1998 31.8189 53.3575 31.5831 53.5962 31.5212C53.8628 31.4534 54.1221 31.6258 54.3711 31.7497C55.3332 32.2302 56.5752 31.9486 57.2736 31.0937C57.6449 32.0356 58.7617 32.4454 59.6928 32.2154C60.624 31.9855 61.3812 31.2618 61.9868 30.4717C63.2362 30.9596 64.7316 30.6191 65.6878 29.63C66.644 28.6395 67.0123 27.049 66.5983 25.6959C66.4171 25.1034 66.0959 24.5152 66.1917 23.8991C66.2653 23.4245 66.5747 23.0368 66.8547 22.661C67.9022 21.2562 68.7229 19.5464 68.6566 17.7511C68.5903 15.9557 67.4116 14.1309 65.7497 13.8862C66.4303 12.5567 66.3582 10.8233 65.5699 9.56299C64.7817 8.30272 63.3142 7.57162 61.9072 7.73965C62.1709 6.51181 61.7466 5.14395 60.8479 4.33031C59.9506 3.51666 58.6202 3.29555 57.5344 3.77902C57.5226 2.58655 56.7992 1.44272 55.7737 0.985783Z" fill="#231F20"/>
<path d="M43.1147 42.5349L47.9281 49.0721L51.2991 49.2372L56.7269 43.2011L56.1773 35.7368L55.8517 31.2337L45.1538 30.7104L43.956 37.6913L43.1147 42.5349Z" fill="#F68080"/>
<path opacity="0.7" d="M43.9561 37.6913C49.6726 38.7378 53.7125 37.2535 56.1774 35.7368L55.8518 31.2352L45.1539 30.7119L43.9561 37.6913Z" fill="#F68080"/>
<path d="M39.2356 20.7109L39.2223 20.991C39.0942 23.6117 39.5038 26.0954 40.3273 28.2754C42.0629 32.8905 45.6667 36.1363 50.0189 36.4237C54.6364 36.7082 58.8619 33.5656 61.0748 28.7147C61.1735 28.5128 61.2575 28.3108 61.34 28.1074C61.9912 26.5597 62.4273 24.8691 62.6189 23.0634C62.6616 22.7848 62.6911 22.4915 62.7043 22.2114C62.9828 17.7098 61.6951 13.5885 59.4026 10.6862C59.3761 10.6258 59.3201 10.5786 59.2788 10.5182C57.3723 8.16717 54.8058 6.66811 51.924 6.48386C48.8653 6.28929 45.9687 7.6085 43.7307 9.93448C43.218 10.4548 42.748 11.0223 42.3193 11.6369C41.3042 13.0785 40.485 14.75 39.9516 16.6132C39.5642 17.9088 39.3211 19.2693 39.2356 20.7109Z" fill="#F68080"/>
<path opacity="0.7" d="M42.6256 21.5289C42.8879 21.4361 43.1722 21.4331 43.4478 21.3948C44.8018 21.2032 45.9627 20.0549 46.1705 18.7033C48.1005 18.1314 50.0306 17.5595 51.9621 16.9861C53.2926 17.2632 54.6775 16.9035 55.9313 16.3788C56.6194 16.0913 57.3015 15.7435 57.8216 15.207C58.3402 14.6704 58.6791 13.9157 58.5612 13.1787C58.3535 11.8713 56.9096 11.18 55.6219 10.8734C51.6852 9.93592 47.3388 10.6095 44.015 12.9178C41.584 14.6055 39.8145 17.1511 39.0322 20.0019C38.7537 21.0145 38.0671 23.0177 39.4211 23.541C40.9416 24.132 41.4617 21.9372 42.6256 21.5289Z" fill="#F68080"/>
<path d="M40.3271 28.2769C42.0627 32.892 45.6665 36.1377 50.0187 36.4252C54.6362 36.7097 58.8617 33.5671 61.0746 28.7161C61.1733 28.5142 61.2573 28.3123 61.3398 28.1089C59.2757 26.8722 54.6479 24.387 50.8291 24.3487C47.6304 24.3089 43.1677 26.5847 40.3271 28.2769Z" fill="#52C4A7"/>
<path d="M25.7412 102.342C25.7412 102.342 21.1061 107.83 16.7333 111.328C14.8224 112.861 12.963 114 11.5619 114.131C6.97983 114.563 1.08797 110.856 0.656284 105.618C0.211337 100.378 0.433811 80.508 5.23835 66.3223C8.4458 56.812 11.0772 52.9885 12.4518 51.5071C13.1457 50.773 13.5258 50.6035 13.5258 50.6035L18.986 53.2228C27.2735 69.372 25.7412 102.342 25.7412 102.342Z" fill="#462ABC"/>
<path opacity="0.7" d="M25.7414 102.342C25.7414 102.342 21.1063 107.83 16.7334 111.328C17.2962 102.053 18.2126 85.5108 18.108 76.6432C17.9504 63.8592 12.4519 51.5071 12.4519 51.5071C13.1458 50.773 13.5259 50.6035 13.5259 50.6035L18.9861 53.2228C27.2736 69.372 25.7414 102.342 25.7414 102.342Z" fill="#462ABC"/>
<path d="M97.6473 96.9446C97.6473 100.534 93.2346 107.581 89.622 110.2C87.8805 111.471 85.0665 110.619 82.4336 108.838C79.6181 106.938 77.0132 103.979 76.1882 101.359C75.6121 99.5521 75.4412 94.1543 75.4677 87.9856C75.481 84.8681 75.559 81.5413 75.6371 78.3708C75.8596 70.2623 76.2132 63.2033 76.2132 63.2033C75.7152 63.0456 83.571 47.9828 83.571 47.9828C83.571 47.9828 84.1987 48.7552 85.2344 50.72C86.4647 53.0121 88.2459 56.9417 90.2747 63.2033C94.0464 74.8346 97.6473 93.3569 97.6473 96.9446Z" fill="#462ABC"/>
<path opacity="0.7" d="M97.6459 96.9447L75.4663 87.9857C75.4796 84.8682 75.5577 81.5414 75.6358 78.3708L77.1813 74.9393C77.1813 74.9393 87.3414 83.2306 91.0984 86.5574C94.8568 89.8989 97.6459 96.9447 97.6459 96.9447Z" fill="#462ABC"/>
<path d="M75.4235 79.3951C75.4235 79.3951 83.0524 83.0212 88.4521 87.6053C93.8534 92.1895 95.4888 91.2211 97.4527 96.9446C99.4167 102.668 93.3613 111.307 88.4521 111.326C83.543 111.346 75.2791 103.486 75.2791 103.486L75.4235 79.3951Z" fill="#462ABC"/>
<path opacity="0.7" d="M82.4852 67.9585C81.4377 78.673 82.223 102.854 82.4322 108.84C79.6167 106.94 77.0118 103.98 76.1867 101.361C74.5631 96.2917 76.2132 63.2048 76.2132 63.2048C75.7153 63.0471 83.5711 47.9843 83.5711 47.9843C83.5711 47.9843 84.2002 48.7567 85.2345 50.7215C84.3181 54.9371 83.1394 61.1722 82.4852 67.9585Z" fill="#462ABC"/>
<path d="M78.0078 80.402C79.3176 65.6664 83.5725 47.9828 83.5725 47.9828C83.5725 47.9828 70.1534 42.0883 60.6607 38.8145C59.7885 38.5138 58.9134 38.2853 58.0382 38.0878L57.3605 36.4443C55.8164 37.0236 54.1074 37.2948 52.4219 37.3862C51.5408 37.3582 50.6863 37.3641 49.8656 37.398C46.1602 37.2447 43.1178 36.4443 43.1178 36.4443L42.2367 38.4829C41.472 38.6745 41.0227 38.816 41.0227 38.816C41.0227 38.816 21.7117 45.6922 13.5273 50.605C13.5273 50.605 21.0561 65.9965 21.7102 85.6435C22.3644 105.292 22.0373 118.39 22.0373 118.39L47.8958 121.992L81.2815 118.717C81.2815 118.717 76.698 95.1375 78.0078 80.402Z" fill="#462ABC"/>
<path opacity="0.7" d="M22.6901 78.6405C22.6901 78.6405 10.6102 86.2316 2.79419 100.345L16.3032 92.3001L24.6555 89.2813L22.6901 78.6405Z" fill="#462ABC"/>
<path d="M0.538497 103.436C0.554704 102.78 12.6552 87.3504 25.8563 79.6738C25.8563 79.6738 26.618 87.4963 32.0737 96.4479C32.0737 96.4479 23.7818 108.891 11.562 114.132C11.562 114.132 0.22173 115.915 0.538497 103.436Z" fill="#462ABC"/>
<path d="M30.2188 112.494H80.4786V126.083L56.0772 128.54L30.2188 120.517V112.494Z" fill="#231F20"/>
<path d="M82.4809 78.6405H21.1858V115.877H82.4809V78.6405Z" fill="#1D8267"/>
<path d="M82.4809 78.6405H21.1858V94.4831H82.4809V78.6405Z" fill="#39B597"/>
<path d="M26.6724 78.6405C26.6724 78.6405 33.8726 72.6517 35.838 72.4335C35.838 72.4335 37.5839 71.7791 39.3298 71.9972C39.3298 71.9972 42.3855 71.1246 43.3667 72.4335C43.3667 72.4335 44.7855 71.4504 46.5314 73.088C48.2773 74.7256 50.5683 75.7073 50.5683 77.454C50.5683 79.2007 49.5871 84.3302 48.7134 85.3133C47.8412 86.295 46.2043 85.7496 46.2043 85.7496C46.2043 85.7496 46.5314 88.8067 44.7855 89.243C43.8102 89.4877 42.0584 88.4795 42.0584 88.4795C42.0584 88.4795 40.4215 89.1339 39.5493 88.6976C38.6771 88.2613 38.6226 85.1836 38.6226 85.1836C38.6226 85.1836 38.0229 85.8602 36.8222 84.5498C35.6214 83.2394 34.8582 78.6405 34.8582 78.6405H26.6724Z" fill="#F68080"/>
<g opacity="0.7">
<path d="M38.8376 74.9437C38.8376 74.9437 42.2204 80.2501 39.4373 85.1836" stroke="#F68080" stroke-width="0.5" stroke-miterlimit="10" stroke-linecap="round"/>
<path d="M42.2205 74.9437C42.2205 74.9437 44.7296 76.8806 44.2935 80.4963C43.8574 84.1135 42.8746 86.9509 42.8746 88.4795" stroke="#F68080" stroke-width="0.5" stroke-miterlimit="10" stroke-linecap="round"/>
<path d="M45.8213 74.9437C45.8213 74.9437 48.3304 78.5801 47.8943 80.965C47.4582 83.3485 47.0221 85.7496 47.0221 85.7496" stroke="#F68080" stroke-width="0.5" stroke-miterlimit="10" stroke-linecap="round"/>
</g>
<path d="M76.9941 78.6405C76.9941 78.6405 69.7925 72.6517 67.8285 72.4335C67.8285 72.4335 66.0826 71.7791 64.3367 71.9972C64.3367 71.9972 61.281 71.1246 60.2998 72.4335C60.2998 72.4335 58.881 71.4504 57.1351 73.088C55.3892 74.7256 53.0981 75.7073 53.0981 77.454C53.0981 79.2007 54.0809 84.3302 54.9531 85.3133C55.8253 86.295 57.4621 85.7496 57.4621 85.7496C57.4621 85.7496 57.1351 88.8067 58.881 89.243C59.8563 89.4877 61.6081 88.4795 61.6081 88.4795C61.6081 88.4795 63.245 89.1339 64.1172 88.6976C64.9894 88.2613 65.0439 85.1836 65.0439 85.1836C65.0439 85.1836 65.6436 85.8602 66.8443 84.5498C68.0451 83.2394 68.8083 78.6405 68.8083 78.6405H76.9941Z" fill="#F68080"/>
<g opacity="0.7">
<path d="M66.4655 74.9437C66.4655 74.9437 63.0828 80.2501 65.8659 85.1836" stroke="#F68080" stroke-width="0.5" stroke-miterlimit="10" stroke-linecap="round"/>
<path d="M63.0829 74.9437C63.0829 74.9437 60.5738 76.8806 61.0099 80.4963C61.446 84.1135 62.4287 86.9509 62.4287 88.4795" stroke="#F68080" stroke-width="0.5" stroke-miterlimit="10" stroke-linecap="round"/>
<path d="M59.4835 74.9437C59.4835 74.9437 56.9744 78.5801 57.4105 80.965C57.8466 83.3485 58.2827 85.7496 58.2827 85.7496" stroke="#F68080" stroke-width="0.5" stroke-miterlimit="10" stroke-linecap="round"/>
</g>
<path d="M34.1466 227.591C33.8976 228.285 33.6236 228.809 33.3216 229.071C31.8556 230.381 31.3576 231.363 30.2187 232.674C29.0798 233.984 14.0238 234.14 13.0279 232.674C12.7921 232.32 12.5431 231.757 12.3604 231.049C11.7446 228.757 11.7181 224.945 14.8356 221.697C18.9212 217.453 20.5699 207.131 20.5699 207.131H32.3536C32.3536 207.131 34.1466 213.183 34.9717 216.628C35.6258 219.378 35.1279 224.841 34.1466 227.591Z" fill="#462ABC"/>
<path d="M34.1465 227.591C33.8975 228.285 33.6235 228.809 33.3215 229.071C31.8555 230.381 31.3575 231.363 30.2186 232.674C29.0797 233.984 14.0237 234.14 13.0278 232.674C12.792 232.32 12.543 231.757 12.3604 231.049C14.3759 230.827 17.3358 230.551 20.0718 230.551C24.8115 230.551 29.5114 230.956 29.5114 230.956L34.1465 227.591Z" fill="white"/>
<path d="M81.809 227.591C82.058 228.285 82.332 228.809 82.6341 229.071C84.1 230.381 84.598 231.363 85.7369 232.674C86.8758 233.984 101.932 234.14 102.928 232.674C103.163 232.32 103.412 231.757 103.595 231.049C104.211 228.757 104.236 224.945 101.12 221.697C97.0344 217.453 95.3858 207.131 95.3858 207.131H83.602C83.602 207.131 81.809 213.183 80.9839 216.628C80.3298 219.378 80.8263 224.841 81.809 227.591Z" fill="#462ABC"/>
<path d="M81.8088 227.591C82.0578 228.285 82.3319 228.809 82.6339 229.071C84.0999 230.381 84.5979 231.363 85.7367 232.674C86.8756 233.984 101.932 234.14 102.928 232.674C103.163 232.32 103.412 231.757 103.595 231.049C101.578 230.827 98.6196 230.551 95.8836 230.551C91.1439 230.551 86.4439 230.956 86.4439 230.956L81.8088 227.591Z" fill="white"/>
<path d="M98.9924 116.751C86.4204 109.956 62.9428 121.155 57.6182 123.87C52.4291 121.155 29.535 109.956 16.9616 116.751C2.72328 124.447 6.81474 145.24 6.6512 156.375C6.48766 167.508 15.6518 209.915 15.6518 209.915C15.6518 209.915 25.308 212.207 33.818 209.097C33.818 209.097 33.0003 185.028 32.8353 176.514C32.6717 168 32.5082 148.843 32.5082 148.843C32.5082 148.843 51.2402 146.536 57.6064 142.734C64.0537 146.536 83.4428 148.843 83.4428 148.843C83.4428 148.843 83.2793 167.999 83.1157 176.514C82.9522 185.028 82.133 209.097 82.133 209.097C90.643 212.209 100.299 209.915 100.299 209.915C100.299 209.915 109.463 167.508 109.3 156.375C109.136 145.242 113.231 124.445 98.9924 116.751Z" fill="#231F20"/>
<path d="M64.6374 19.2796C64.0274 16.2284 63.0903 13.1993 61.4122 10.58C59.7326 7.9622 57.2471 5.77183 54.2621 4.89922C50.3534 3.7554 45.9776 5.03778 42.8586 7.65708C39.738 10.2764 37.777 14.0793 36.7692 18.0267C36.3317 19.7439 35.5582 22.5062 36.5483 24.1821C38.5461 27.5649 42.1189 23.4775 41.5252 20.7919C41.7093 20.7285 41.8729 20.6342 42.0276 20.5251C42.6228 20.5104 43.193 20.3585 43.6306 20.0225C44.5322 19.3297 44.9094 18.0296 44.5175 16.9624C45.2291 17.3752 46.1868 17.3192 46.8439 16.8239C47.5025 16.3286 47.8222 15.4251 47.6218 14.6262C48.1935 15.2688 48.964 15.8039 49.823 15.8245C50.6819 15.8466 51.5851 15.1936 51.5984 14.3343C52.4529 15.2084 53.7907 15.5754 54.9723 15.26C55.4364 15.1362 55.8813 14.9092 56.2172 14.5628C56.3867 14.3874 56.5075 14.184 56.6062 13.9702C56.4324 14.8251 56.3911 15.7199 56.702 16.5291C57.0526 17.4385 57.9234 18.1977 58.8987 18.1711C58.1665 19.4491 58.996 21.327 60.431 21.6468C60.2719 22.4295 60.6019 23.2903 61.2428 23.7649C61.8837 24.2396 62.8031 24.3044 63.5044 23.9256C65.0086 23.1105 64.9733 20.9599 64.6374 19.2796Z" fill="#231F20"/>
</svg>
