<svg width="97" height="175" viewBox="0 0 97 175" fill="none" xmlns="http://www.w3.org/2000/svg">
<path d="M86.9675 135.457H10.3335V145.548H86.9675V135.457Z" fill="#D3A459"/>
<path d="M17.2081 135.457H10.3335V145.548H17.2081V135.457Z" fill="#D3A459"/>
<path d="M86.9673 135.457H80.0928V145.548H86.9673V135.457Z" fill="#D3A459"/>
<path d="M91.1383 16.7856V90.5549H6.16382V16.7856C6.16382 7.93274 12.9087 0.764648 21.211 0.764648H76.0912C84.4052 0.766122 91.1383 7.93421 91.1383 16.7856Z" fill="#EFCB72"/>
<path d="M91.1368 78.39H6.16235V90.5549H91.1368V78.39Z" fill="#EFCB72"/>
<path d="M14.12 92.6567H6.55444V174.616H14.12V92.6567Z" fill="#D3A459"/>
<path d="M90.754 92.6567H83.1885V174.616H90.754V92.6567Z" fill="#D3A459"/>
<path d="M14.12 92.6567H6.55444V103.401H14.12V92.6567Z" fill="#D3A459"/>
<path d="M90.754 92.6567H83.1885V103.401H90.754V92.6567Z" fill="#D3A459"/>
<path d="M89.59 98.1695H7.71975C3.64598 98.1695 0.342773 94.8648 0.342773 90.7892V90.3234C0.342773 86.2463 3.64598 82.9431 7.71975 82.9431H89.59C93.6652 82.9431 96.9669 86.2478 96.9669 90.3234V90.7892C96.9669 94.8648 93.6637 98.1695 89.59 98.1695Z" fill="#D3A459"/>
</svg>
