<svg width="108" height="81" viewBox="0 0 108 81" fill="none" xmlns="http://www.w3.org/2000/svg">
<path d="M107.785 4.54415V63.171C107.785 65.2051 106.132 66.859 104.099 66.859H4.23362C2.20042 66.859 0.547363 65.2051 0.547363 63.171V4.54415C0.547363 2.51003 2.20045 0.856201 4.49148 0.856201H104.357C106.132 0.856201 107.785 2.51003 107.785 4.54415Z" fill="#231F20"/>
<path d="M4.2337 64.6244C3.43368 64.6244 2.78101 63.9729 2.78101 63.1711V4.54417C2.78101 3.74379 3.43221 3.09082 4.2337 3.09082H104.099C104.899 3.09082 105.552 3.74379 105.552 4.54417V63.1711C105.552 63.9729 104.901 64.6244 104.099 64.6244H4.2337Z" fill="#333333"/>
<path opacity="0.5" d="M66.2197 66.8604H42.113C45.1407 60.848 46.6155 55.4502 46.6155 55.4502H61.7186C61.7186 55.4502 63.192 60.848 66.2197 66.8604Z" fill="#57A6CF"/>
<path d="M61.3635 55.4502H57.6728H50.6583H46.9676C46.9676 55.4502 46.0674 70.5071 39.5449 77.687V80.3166H50.6583H57.6728H68.7862V77.687C62.2637 70.5071 61.3635 55.4502 61.3635 55.4502Z" fill="#D7F1F7"/>
<g opacity="0.5">
<path d="M74.4129 55.4502H72.4578V62.1554H74.4129V55.4502Z" fill="#57A6CF"/>
<path d="M78.6031 55.4502H76.6479V62.1554H78.6031V55.4502Z" fill="#57A6CF"/>
<path d="M82.7918 55.4502H80.8367V62.1554H82.7918V55.4502Z" fill="#57A6CF"/>
</g>
</svg>
