<svg width="78" height="70" viewBox="0 0 78 70" fill="none" xmlns="http://www.w3.org/2000/svg">
<path d="M74.9626 0.0246582H2.76929V24.7864H74.9626V0.0246582Z" fill="#EFCB72"/>
<path d="M74.9626 5.86023H2.76929V24.7878H74.9626V5.86023Z" fill="#EFCB72"/>
<path d="M74.9626 7.8501H2.76929V32.6118H74.9626V7.8501Z" fill="#EFCB72"/>
<path d="M74.9626 13.6842H2.76929V32.6118H74.9626V13.6842Z" fill="#EFCB72"/>
<path opacity="0.5" d="M40.4218 24.7835C38.0895 22.4722 35.7366 20.1492 33.833 18.2743H0.609375V24.7835V62.9247V69.4339H77.1181V24.7835H40.4218Z" fill="#75C6EF"/>
<path d="M40.4218 21.8355C38.0895 19.5242 35.7366 17.2012 33.833 15.3263H0.609375V21.8355V59.9767V66.4859H77.1181V21.8355H40.4218Z" fill="#D1EEFC"/>
<path d="M70.5425 27.6975H40.7075V36.2585H70.5425V27.6975Z" fill="white"/>
</svg>
