<svg width="97" height="170" viewBox="0 0 97 170" fill="none" xmlns="http://www.w3.org/2000/svg">
<path d="M5.28261 89.9144L1.60962 95.0439C1.60962 95.0439 9.65547 98.9014 21.8576 96.6668L20.5066 89.9144H5.28261Z" fill="#52C4A7"/>
<path d="M5.28261 89.9144L1.60962 95.0439C1.60962 95.0439 9.65547 98.9014 21.8576 96.6668L20.5066 89.9144H5.28261Z" fill="#52C4A7"/>
<path d="M38.5256 4.71427C38.5389 4.69216 41.0421 0.547288 44.9744 0.125724C48.917 -0.29584 57.5125 2.80543 61.5332 16.235C65.5554 29.6647 56.3751 47.108 56.3751 47.108C52.8862 46.937 49.3988 46.766 45.91 46.5965C43.2786 46.4683 40.6472 46.3386 38.0144 46.2103C36.9388 46.1573 35.85 46.1484 34.776 46.0511C33.699 45.9539 32.3288 46.6496 31.3829 46.399C30.991 46.2958 30.7184 45.9524 30.4827 45.6222C26.5268 40.0814 25.357 32.9148 26.0141 26.1359C26.6712 19.3585 29.0093 12.864 31.5479 6.54645C32.2433 4.81745 33.45 3.5557 35.4375 3.55718C35.6733 3.55718 38.7378 4.36494 38.5256 4.71427Z" fill="#F8EE63"/>
<path d="M85.9198 84.5962C86.6565 84.0803 96.239 89.0786 96.239 89.0786C96.239 89.0786 88.7987 96.8186 79.1631 97.0825C69.5275 97.3463 71.7979 89.4339 71.7979 89.4339L85.9198 84.5962Z" fill="#52C4A7"/>
<path d="M85.9198 84.5962C86.6565 84.0803 96.239 89.0786 96.239 89.0786C96.239 89.0786 88.7987 96.8186 79.1631 97.0825C69.5275 97.3463 71.7979 89.4339 71.7979 89.4339L85.9198 84.5962Z" fill="#52C4A7"/>
<path d="M87.7644 169.468H2.39063C2.39063 169.468 2.3906 169.468 3.96265 150.627C5.31812 134.425 11.9938 113.587 15.8362 97.0825C16.4668 94.388 17.0134 91.8174 17.4554 89.3956C20.5995 72.1188 15.0731 44.4902 15.0731 44.4902C15.0731 44.4902 41.3146 36.3228 54.1768 39.1484C67.0478 41.9741 76.1531 47.6269 76.1531 47.6269C77.4054 65.2146 67.0479 89.0757 76.1531 110.742C76.9059 112.542 77.622 114.454 78.2909 116.441C85.6546 138.324 87.7644 169.468 87.7644 169.468Z" fill="#52C4A7"/>
<path d="M36.7473 41.1088L41.5607 47.646L44.9302 47.8111L50.3594 41.7751L49.8099 34.3107L49.4843 29.8077L38.7849 29.2844L37.5886 36.2653L36.7473 41.1088Z" fill="#F68080"/>
<path opacity="0.7" d="M37.5884 36.2653C43.3049 37.3118 47.3448 35.8275 49.8097 34.3107L49.4841 29.8092L38.7862 29.2859L37.5884 36.2653Z" fill="#F68080"/>
<path d="M32.8679 19.2847L32.8547 19.5648C32.7265 22.1856 33.1361 24.6707 33.9582 26.8493C35.6938 31.4644 39.2976 34.7102 43.6498 34.9976C48.2672 35.2821 52.4927 32.1395 54.7057 27.2886C54.8044 27.0866 54.8884 26.8847 54.9709 26.6813C55.6221 25.1336 56.0582 23.4429 56.2497 21.6373C56.2925 21.3587 56.3219 21.0653 56.3352 20.7853C56.6136 16.2837 55.3259 12.1624 53.0334 9.26008C53.0069 9.19965 52.9509 9.15248 52.9082 9.09205C51.0017 6.74102 48.4352 5.24343 45.5533 5.05771C42.4947 4.86314 39.5981 6.18238 37.3601 8.50835C36.8474 9.02867 36.3774 9.59616 35.9486 10.2108C34.9335 11.6524 34.1143 13.3239 33.581 15.187C33.1965 16.4827 32.9534 17.8432 32.8679 19.2847Z" fill="#F68080"/>
<path d="M33.9583 26.8493C35.6938 31.4644 39.2976 34.7102 43.6498 34.9976C48.2673 35.2821 52.4928 32.1395 54.7057 27.2886C54.8044 27.0867 54.8884 26.8847 54.9709 26.6813C52.9068 25.4446 48.279 22.9595 44.4602 22.9211C41.263 22.8828 36.8003 25.1587 33.9583 26.8493Z" fill="#52C4A7"/>
<path opacity="0.7" d="M32.868 19.2848L32.8547 19.5649C35.6732 19.245 38.3547 17.7828 40.0741 15.5202C41.7949 18.9547 45.2293 21.114 48.5266 23.0465C49.8025 23.8026 51.0931 24.5588 52.3204 25.4019C53.0055 25.8633 53.8453 26.8052 54.7057 27.2901C55.4969 25.5876 56.0332 23.6803 56.2512 21.6403C54.9915 20.265 53.1882 19.4101 51.8636 18.1498C49.3796 15.8593 48.2864 12.2789 45.6138 10.2138C44.0211 8.98451 41.9555 8.41111 39.968 8.63958C38.5138 8.80467 37.1583 9.38692 35.9532 10.2138C34.938 11.6554 34.1189 13.3269 33.5855 15.19C33.1966 16.4827 32.9535 17.8432 32.868 19.2848Z" fill="#F68080"/>
<path d="M36.5071 17.9847C35.3049 19.2538 33.833 20.2163 32.6205 21.5164C32.4894 21.6564 32.3509 21.7994 32.1638 21.8613C31.7807 21.9895 31.3682 21.7183 31.1413 21.3984C30.6359 20.6924 30.6624 19.7726 30.7302 18.9251C30.9851 15.697 31.3417 12.3702 32.7458 9.39564C33.064 8.7235 33.4161 8.06022 33.8906 7.50157C34.421 6.87807 35.0883 6.4049 35.7793 5.9966C36.3259 5.19327 37.4884 4.60662 38.729 3.92269C39.3964 3.55419 40.0903 3.17832 40.8609 3.1002C41.7287 3.01323 42.592 3.31687 43.4642 3.31245C44.1494 3.3095 44.8153 3.11642 45.4886 3.00292C46.6496 2.8054 47.9608 2.87763 48.8478 3.6161C49.1705 3.88437 49.4151 4.22486 49.7156 4.51671C51.0534 5.81678 53.396 6.08799 54.3036 7.68434C54.5673 8.14865 54.6734 8.67783 54.9106 9.15393C55.2274 9.78775 55.7592 10.2977 56.2498 10.824C57.1795 11.8233 58.0267 13.0423 57.9309 14.3645C57.8852 14.9983 57.623 15.6012 57.5419 16.2321C57.4049 17.2933 57.813 18.334 57.732 19.3908C57.6539 20.4064 57.0793 21.0358 56.7375 21.9335C56.0097 23.8379 56.132 25.7998 55.0284 27.6541C53.0409 23.9632 49.1278 21.5532 46.5774 18.1836C45.4871 16.7421 41.9187 9.28067 39.333 12.1756C38.6995 12.8846 38.533 13.8516 38.256 14.7419C37.9054 15.8621 37.3381 17.1047 36.5071 17.9847Z" fill="#F8EE63"/>
<path d="M78.2923 116.441C68.1602 111.448 64.9307 98.9662 64.9307 98.9662C64.9307 98.9662 62.0297 82.481 65.6747 66.9377C69.3094 51.3944 76.1545 47.6268 76.1545 47.6268C77.4068 65.2146 67.0493 89.0757 76.1545 110.742C76.9074 112.542 77.6234 114.454 78.2923 116.441Z" fill="#52C4A7"/>
<path d="M34.0937 96.6684C34.0937 96.6684 25.0828 95.5658 15.8361 97.0826C16.4667 94.3881 17.0133 91.8174 17.4553 89.3956C20.5994 72.1189 15.073 44.4902 15.073 44.4902C15.073 44.4902 21.8518 50.9242 25.3082 58.931C28.7544 66.9378 31.2679 76.3581 32.8414 85.3068C34.4046 94.2569 34.0937 96.6684 34.0937 96.6684Z" fill="#52C4A7"/>
<path d="M76.1515 47.6298C76.1515 47.6298 81.8017 49.5135 86.1952 61.4456C90.5887 73.3776 96.239 89.0786 96.239 89.0786C96.239 89.0786 78.0344 88.1368 67.9907 91.9043C67.9907 91.9043 67.9907 51.7127 76.1515 47.6298Z" fill="#52C4A7"/>
<path d="M62.1299 111.563C62.1299 111.563 79.997 136.404 80.1149 136.312C80.2327 136.219 82.5871 136.312 82.5871 136.312L64.2264 110.549C64.2264 110.549 62.5763 109.489 62.1299 111.563Z" fill="#231F20"/>
<path d="M78.8565 132.153C78.2922 133.01 77.3964 132.964 76.5316 133.228C75.6564 133.492 75.543 134.255 74.7607 134.782C74.0918 135.234 73.386 135.337 72.5948 135.187C71.9731 135.809 71.098 136.12 70.2213 136.214C66.9918 136.592 63.4425 135.781 60.2218 135.395C56.6902 135.631 50.1 134.217 45.0803 132.333C40.0518 130.449 24.4404 120.793 18.0844 112.08C14.3466 106.955 11.5031 99.7873 9.78961 94.7668C8.60358 91.244 7.96265 88.7662 7.96265 88.7662C19.6108 85.1107 27.972 87.7108 27.972 87.7108C28.4803 90.0279 29.0358 93.5891 29.4881 96.6698C29.9772 100.014 30.3264 102.784 30.3264 102.784C30.3264 102.784 33.6222 106.429 37.5015 109.491C41.3896 112.552 53.3767 120.587 53.3767 120.587C55.9948 119.899 58.7249 121.237 61.4373 121.162C63.1891 121.106 64.8554 120.465 66.5689 120.098C68.2824 119.72 70.2036 119.655 71.6534 120.634C72.7643 121.378 73.4229 122.612 74.1301 123.743C75.0435 125.203 76.0969 126.579 77.2844 127.832C77.8487 128.434 78.4617 129.029 78.8374 129.771C79.2145 130.505 79.3177 131.458 78.8565 132.153Z" fill="#F68080"/>
<path opacity="0.7" d="M29.4895 96.6683C22.2481 94.2008 14.7164 94.2937 9.79103 94.7654C8.605 91.2425 7.96411 88.7647 7.96411 88.7647C19.6123 85.1092 27.9734 87.7093 27.9734 87.7093C28.4817 90.0265 29.0372 93.5876 29.4895 96.6683Z" fill="#F68080"/>
<path d="M66.9314 124.915C66.9314 124.915 73.0605 129.649 76.5272 133.228" stroke="#F68080" stroke-width="0.5" stroke-miterlimit="10" stroke-linecap="round" stroke-linejoin="round"/>
<path d="M64.9307 129.071C64.9307 129.071 69.4376 132.512 72.5979 135.19" stroke="#F68080" stroke-width="0.5" stroke-miterlimit="10" stroke-linecap="round" stroke-linejoin="round"/>
<path d="M62.5762 133.863C62.5762 133.863 65.8882 135.227 68.7642 136.312" stroke="#F68080" stroke-width="0.5" stroke-miterlimit="10" stroke-linecap="round" stroke-linejoin="round"/>
<path d="M15.8391 100.069C15.8391 100.069 23.1483 99.0945 30.9157 103.409C30.9157 103.409 26.0906 101.364 20.9118 102.894" stroke="#F68080" stroke-width="0.5" stroke-miterlimit="10" stroke-linecap="round" stroke-linejoin="round"/>
<path d="M15.0774 44.4902C15.0774 44.4902 30.4443 66.3276 30.9158 92.4159C30.9158 92.4159 16.3607 89.7081 1.60823 95.0455C1.60823 95.0455 -0.746177 67.0984 2.3935 57.0502C5.5317 47.0019 15.0774 44.4902 15.0774 44.4902Z" fill="#52C4A7"/>
<path d="M63.0654 25.2603C63.0654 25.2603 59.8786 38.0399 58.0074 41.8797C56.1378 45.7195 58.6557 47.6975 58.6557 47.6975C58.6557 47.6975 64.8835 36.0692 66.208 25.7246C66.8401 20.7882 66.9712 18.1557 66.9373 16.7524C66.9152 15.8444 66.2389 15.0897 65.3387 14.9571L63.3777 14.6682C62.6425 14.5591 61.9574 15.0676 61.8499 15.8046L60.8009 22.9226C60.7213 23.4576 60.9703 23.9883 61.433 24.2698L63.0654 25.2603Z" fill="#231F20"/>
<path d="M63.9892 58.5021C63.9892 58.5021 65.6364 82.288 66.9315 93.1204C68.2265 103.954 71.9924 110.43 77.4069 110.901C82.8214 111.373 88.9416 104.307 87.7644 95.9476C86.5872 87.587 78.4544 70.9264 76.9354 66.3275C75.4179 61.7287 73.2034 56.0287 72.5979 52.9672C71.9924 49.9057 71.7566 40.2495 71.5224 37.5418C71.2867 34.834 68.8159 30.5948 66.3436 28.5931C63.8713 26.5914 60.2234 25.5317 58.9283 26.4735C57.6333 27.4154 58.4569 29.1813 60.1055 29.7709C61.7527 30.359 63.5192 31.7725 63.5192 31.7725C63.5192 31.7725 60.359 31.0783 58.5305 31.8124C57.9029 32.0644 57.5169 32.7041 57.5169 33.3807V34.5997C57.5169 34.5997 55.2803 35.6595 55.7518 38.0149C55.7518 38.0149 55.5161 40.9585 56.929 41.5481C58.3419 42.1362 59.0477 41.9019 59.0477 41.9019C59.0477 41.9019 59.0477 50.1445 63.5207 55.4435L63.9892 58.5021Z" fill="#F68080"/>
<path d="M57.5154 34.5997C57.5154 34.5997 63.0478 33.0697 66.46 37.6612" stroke="#F68080" stroke-width="0.5" stroke-miterlimit="10" stroke-linecap="round" stroke-linejoin="round"/>
<path d="M55.7371 38.5545C55.7371 38.5545 60.0171 37.0716 63.8375 40.2511" stroke="#F68080" stroke-width="0.5" stroke-miterlimit="10" stroke-linecap="round" stroke-linejoin="round"/>
<path d="M59.0461 41.9004C59.0461 41.9004 59.9876 41.7648 61.4006 42.7833" stroke="#F68080" stroke-width="0.5" stroke-miterlimit="10" stroke-linecap="round" stroke-linejoin="round"/>
<path d="M47.8841 38.2743L52.1848 38.4232C52.1848 38.4232 52.699 45.743 44.466 54.0476C44.466 54.0476 38.1852 47.9363 35.7085 39.1837C35.7085 39.1837 36.9549 38.4158 40.292 38.6118C43.6291 38.8079 47.8841 38.2743 47.8841 38.2743Z" fill="#F68080"/>
</svg>
