<svg width="85" height="230" viewBox="0 0 85 230" fill="none" xmlns="http://www.w3.org/2000/svg">
<path d="M50.3447 5.56376C50.3314 5.54165 47.8282 1.39678 43.8974 0.975211C39.9547 0.553647 31.3593 3.65495 27.3386 17.0846C23.3164 30.5142 32.4967 47.9575 32.4967 47.9575C35.9856 47.7865 39.4729 47.6155 42.9618 47.446C45.5932 47.3178 48.226 47.1881 50.8574 47.0598C51.9329 47.0068 53.0232 46.9979 54.0958 46.9006C55.1728 46.8033 56.543 47.4991 57.4889 47.2485C57.8793 47.1453 58.1533 46.8018 58.3891 46.4717C62.345 40.9309 63.5148 33.7643 62.8577 26.9854C62.2006 20.2079 59.8624 13.7135 57.3239 7.39596C56.6284 5.66696 55.4218 4.4052 53.4343 4.4052C53.1985 4.4052 50.134 5.21295 50.3447 5.56376Z" fill="#6E1216"/>
<path d="M33.7019 226.997C34.2559 228.58 37.4206 229.257 39.7882 229.486C42.1544 229.703 49.0246 228.242 51.3922 225.874C53.7584 223.506 53.421 217.31 53.0821 212.79C52.7447 208.284 53.0821 202.873 53.0821 202.873L52.0685 202.968L38.3149 204.227C38.0851 206.609 37.5841 209.083 36.9624 211.452C36.4084 213.576 35.7454 215.606 35.0692 217.419C33.6341 221.247 33.1347 225.427 33.7019 226.997Z" fill="#ED3A5B"/>
<path d="M36.5147 218.324C36.6222 219.108 37.9748 220.691 43.3981 220.665C48.8082 220.638 52.7435 219.447 52.1748 214.265C51.7961 210.72 51.9316 205.754 52.0672 202.966L38.3136 204.225C38.0838 206.607 37.5829 209.082 36.9611 211.451C36.8123 214.833 36.4616 217.905 36.5147 218.324Z" fill="#F68080"/>
<path d="M5.99292 226.997C6.5469 228.58 9.71162 229.257 12.0793 229.486C14.4454 229.703 21.3156 228.242 23.6832 225.874C26.0494 223.506 25.712 217.31 25.3731 212.79C25.0358 208.284 25.3731 202.873 25.3731 202.873L24.3595 202.968L10.6059 204.227C10.3761 206.609 9.87516 209.083 9.25341 211.452C8.69944 213.576 8.03644 215.606 7.36018 217.419C5.92662 221.247 5.42569 225.427 5.99292 226.997Z" fill="#ED3A5B"/>
<path d="M8.80719 218.324C8.91475 219.108 10.2673 220.691 15.6906 220.665C21.1007 220.638 25.036 219.447 24.4673 214.265C24.0886 210.72 24.2242 205.754 24.3597 202.966L10.6061 204.225C10.3763 206.607 9.87536 209.082 9.25362 211.451C9.10481 214.833 8.75268 217.905 8.80719 218.324Z" fill="#F68080"/>
<path d="M10.5898 66.2204H24.5732L27.6702 48.4012C27.9546 48.4012 24.5732 44.1251 24.5732 44.1251C24.5732 44.1251 13.1859 48.4955 10.5898 66.2204Z" fill="#ED3A5B"/>
<path opacity="0.5" d="M18.9349 66.2204H24.5748L27.6717 48.4012C27.9561 48.4012 24.5748 44.1251 24.5748 44.1251C24.5748 44.1251 21.6399 46.709 19.6111 54.0422C18.5017 58.0485 18.6093 62.7697 18.9349 66.2204Z" fill="#A81B39"/>
<path d="M11.804 119.314C26.0039 126.309 74.1525 117.471 74.1525 117.471C74.1525 117.471 73.2331 113.723 72.246 109.109C71.1646 104.049 69.9874 97.9335 69.8798 94.6317C69.65 88.3127 70.7727 80.1954 69.65 68.9252C68.5406 57.8171 73.9904 46.2624 74.1407 45.9381C74.1539 45.9249 74.1539 45.9249 74.1539 45.9249C67.879 39.3892 57.4788 37.8076 57.4788 37.8076C57.4788 37.8076 44.4015 37.3609 39.2212 38.7141C34.041 40.0672 24.5748 44.1266 24.5748 44.1266C24.5748 44.1266 23.8985 45.2498 23.4389 46.373C21.1537 52.0965 20.7338 64.4221 22.546 70.3889C24.345 76.3556 23.6687 97.7876 21.4101 100.954C19.1647 104.104 11.804 119.314 11.804 119.314Z" fill="#ED3A5B"/>
<path d="M39.7058 38.4295C39.5673 38.4295 38.0217 38.5194 36.2862 39.5807C34.5491 40.6405 38.0026 50.4057 41.3176 53.0324C44.6326 55.6576 52.8273 43.8656 53.3798 41.6546C53.9323 39.4436 52.7345 37.7367 52.7345 37.7367L47.6691 37.7854L39.7058 38.4295Z" fill="#F68080"/>
<path d="M52.1246 41.9569L47.3112 48.4941L43.9402 48.6592L38.5125 42.6231L39.062 35.1588L39.3876 30.6557L50.087 30.1324L51.2833 37.1133L52.1246 41.9569Z" fill="#F68080"/>
<path opacity="0.7" d="M51.2833 37.1133C45.5668 38.1598 41.5254 36.6755 39.062 35.1588L39.3876 30.6572L50.0855 30.1339L51.2833 37.1133Z" fill="#F68080"/>
<path d="M56.0038 20.1328L56.0171 20.4128C56.1453 23.0336 55.7357 25.5188 54.9121 27.6988C53.1765 32.3139 49.5727 35.5597 45.2205 35.8471C40.6031 36.1316 36.3776 32.989 34.1646 28.1381C34.0659 27.9361 33.9819 27.7342 33.8994 27.5308C33.2482 25.9831 32.8121 24.2924 32.6206 22.4868C32.5778 22.2082 32.5484 21.9149 32.5351 21.6348C32.2566 17.1332 33.5443 13.0119 35.8368 10.1096C35.8634 10.0491 35.9193 10.002 35.9606 9.94154C37.8671 7.59051 40.4336 6.09145 43.3155 5.9072C46.3741 5.71263 49.2707 7.03187 51.5087 9.35784C52.0214 9.87816 52.4914 10.4456 52.9201 11.0603C53.9353 12.5019 54.7544 14.1734 55.2878 16.0365C55.6753 17.3307 55.9184 18.6912 56.0038 20.1328Z" fill="#F68080"/>
<path d="M54.9121 27.6989C53.1765 32.314 49.5727 35.5597 45.2205 35.8472C40.6031 36.1317 36.3776 32.9891 34.1646 28.1381C34.0659 27.9362 33.9819 27.7343 33.8994 27.5309C35.9636 26.2942 40.5913 23.809 44.4102 23.7707C47.6088 23.7309 52.0715 26.0067 54.9121 27.6989Z" fill="#52C4A7"/>
<path opacity="0.7" d="M56.0039 20.1327L56.0171 20.4128C53.1986 20.0929 50.5157 18.6307 48.7978 16.3681C47.077 19.8025 43.6426 21.9619 40.3453 23.8944C39.0694 24.6505 37.7787 25.4067 36.5515 26.2498C35.8664 26.7112 35.0266 27.6531 34.1661 28.138C33.375 26.4355 32.8387 24.5282 32.6206 22.4882C33.8803 21.1129 35.6837 20.258 37.0082 18.9977C39.4922 16.7072 40.5854 13.1268 43.2581 11.0617C44.8493 9.83241 46.9164 9.25901 48.9039 9.48748C50.3581 9.65257 51.7135 10.2348 52.9187 11.0617C53.9338 12.5033 54.753 14.1748 55.2864 16.0379C55.6753 17.3306 55.9184 18.6911 56.0039 20.1327Z" fill="#F68080"/>
<path d="M52.3647 18.8327C53.567 20.1032 55.0388 21.0658 56.2514 22.3644C56.3811 22.5044 56.521 22.6474 56.7081 22.7093C57.0912 22.8361 57.5037 22.5663 57.7306 22.2464C58.236 21.5404 58.2095 20.6206 58.1417 19.7731C57.8868 16.545 57.5303 13.2182 56.1262 10.2436C55.8094 9.57003 55.4558 8.9082 54.9814 8.34955C54.451 7.72458 53.7836 7.2529 53.0926 6.8446C52.546 6.04127 51.3835 5.45462 50.143 4.77069C49.4755 4.40219 48.7816 4.02632 48.011 3.9482C47.1433 3.86123 46.2799 4.16487 45.4077 4.16045C44.7226 4.1575 44.0566 3.9644 43.3833 3.8509C42.2238 3.65338 40.9111 3.72562 40.0241 4.46557C39.7014 4.73384 39.4569 5.07432 39.1563 5.36617C37.82 6.66624 35.4759 6.93746 34.5684 8.5338C34.3046 8.99811 34.1985 9.52729 33.9613 10.0034C33.6446 10.6372 33.1127 11.1472 32.6221 11.6734C31.6924 12.6728 30.8452 13.8918 30.941 15.214C30.9867 15.8478 31.2489 16.4507 31.33 17.0815C31.467 18.1428 31.0589 19.1835 31.1399 20.2403C31.218 21.2559 31.7926 21.8853 32.1344 22.7815C32.8622 24.6859 32.7399 26.6478 33.8435 28.5021C35.831 24.8112 39.7442 22.4012 42.2945 19.0316C43.3848 17.59 46.9532 10.1287 49.5389 13.0236C50.1724 13.7326 50.3389 14.6995 50.6159 15.5898C50.9651 16.7101 51.5323 17.9542 52.3647 18.8327Z" fill="#6E1216"/>
<path opacity="0.5" d="M58.3287 99.8821C59.83 101.384 67.565 106.228 72.2443 109.109C71.1629 104.049 69.9857 97.9335 69.8782 94.6317C69.6483 88.3127 70.771 80.1953 69.6483 68.9251C68.5389 57.8171 73.9888 46.2624 74.139 45.9381C73.8149 46.2093 68.6479 50.6328 66.3893 60.2934C64.0777 70.2783 66.3893 79.9124 66.3893 79.9124L60.5196 78.3027C60.5196 78.3027 56.8009 80.7378 56.1246 86.5026C55.4483 92.2645 56.1379 97.677 58.3287 99.8821Z" fill="#A81B39"/>
<path d="M67.5356 86.5999C67.5356 86.5999 63.8729 82.7409 62.6618 81.7534C61.4507 80.7658 60.0982 82.3665 59.5059 85.2025C58.9136 88.0385 57.1869 95.3997 59.5059 96.6305C61.8249 97.8613 65.9296 97.6785 65.9296 97.6785L67.5356 86.5999Z" fill="#A71216"/>
<path d="M8.00271 83.9467C8.00271 83.9467 7.10103 92.3779 9.29924 94.5197C11.4975 96.6614 16.4891 99.8187 17.9374 99.9322C19.3857 100.046 23.4432 100.51 25.0772 95.8242L19.3857 88.1328L8.00271 83.9467Z" fill="#ED3A5B"/>
<path d="M37.8671 62.8375L49.7009 80.9677L59.506 96.629H22.6505L0.000976562 62.8375H37.8671Z" fill="white"/>
<path d="M40.0447 87.0833C40.248 87.5167 40.721 87.7333 41.1939 87.8144C41.6536 87.9087 42.1413 87.9088 42.5877 88.0576C42.047 88.3686 42.128 89.2353 42.5744 89.682C43.0208 90.1153 43.6838 90.2229 44.3056 90.3173C45.0761 90.4396 45.8467 90.5605 46.632 90.6828C46.2533 90.9128 46.1458 91.4817 46.4021 91.8458C46.5907 92.1023 46.9163 92.2246 47.2272 92.3322C48.4854 92.7788 49.7422 93.2122 51.0004 93.6588C52.0421 94.0244 53.1647 94.3899 54.2196 94.0789C54.8826 93.8888 55.4366 93.4436 56.0731 93.1459C56.8304 92.7936 57.682 92.658 58.507 92.7671L59.4544 93.2682L64.3238 95.8256C64.3238 95.8256 67.7861 91.834 65.7573 85.204C65.7573 85.204 62.3628 83.7432 59.699 82.4034C58.6441 81.8757 57.7114 81.3613 57.1427 80.9692C55.114 79.5895 52.9099 78.5341 51.2332 78.3042C49.5286 78.061 48.176 77.3844 47.3377 77.3844L49.7039 80.9692C49.7039 80.9692 44.1185 81.659 42.6039 82.3901C41.3059 83.0254 42.293 84.1486 42.4418 85.0698C41.8201 85.1244 41.1703 85.1774 40.6561 85.5032C40.1257 85.8378 39.7751 86.5276 40.0447 87.0833Z" fill="#F68080"/>
<path opacity="0.7" d="M59.4514 93.2667L64.3208 95.8241C64.3208 95.8241 67.7831 91.8325 65.7543 85.2024C65.7543 85.2024 62.3598 83.7417 59.696 82.4019C60.1012 84.7971 60.3855 88.6118 59.4514 93.2667Z" fill="#F68080"/>
<path d="M74.1567 45.9248C74.1567 45.9248 81.8195 51.1678 83.8483 64.6417C85.6399 76.5413 80.7233 99.1436 78.4544 102.526C76.1855 105.909 59.5059 96.6304 59.5059 96.6304C59.5059 96.6304 64.9159 90.0696 62.6617 81.7533L69.1989 84.3741C69.1989 84.3741 64.4076 60.6383 74.1567 45.9248Z" fill="#ED3A5B"/>
<path opacity="0.5" d="M79.116 89.0511C79.116 89.0511 75.4695 85.8215 69.199 84.3726C69.199 84.3726 72.5243 83.4145 77.4261 84.3726" stroke="#A81B39" stroke-width="0.5" stroke-miterlimit="10" stroke-linecap="round" stroke-linejoin="round"/>
<path d="M51.5602 84.2031C51.5602 84.2031 45.5902 84.75 42.4329 85.0684" stroke="#F68080" stroke-width="0.5" stroke-miterlimit="10" stroke-linecap="round"/>
<path d="M51.5603 87.925C51.5603 87.925 43.98 88.2876 42.5847 88.0547" stroke="#F68080" stroke-width="0.5" stroke-miterlimit="10" stroke-linecap="round"/>
<path d="M51.5602 90.8553C51.5602 90.8553 48.2275 90.5561 46.626 90.677" stroke="#F68080" stroke-width="0.5" stroke-miterlimit="10" stroke-linecap="round"/>
<path d="M18.0891 91.5319C18.0891 91.5319 15.44 94.2381 12.679 93.6736C9.91796 93.1105 8.67741 90.1993 8.50945 88.1313C8.34002 86.0633 7.94664 85.6683 7.32636 84.2031C6.70609 82.738 7.21439 81.2713 7.10094 79.1856C6.9875 77.0999 7.04496 73.8306 8.56544 73.0966C10.0874 72.364 10.5942 75.6333 10.5942 75.6333C10.5942 75.6333 13.2521 71.9129 15.107 71.6299C16.962 71.3484 17.5262 73.6036 16.0603 75.4078C14.5958 77.2119 13.2993 78.0005 12.9044 78.7346C12.5095 79.4672 12.9044 80.9338 13.5807 80.7083C14.2569 80.4828 19.3841 76.2539 21.0755 75.3533C22.7654 74.4512 24.2874 74.5072 25.0756 75.5227C25.8638 76.5369 25.0756 77.5244 25.0756 77.5244C25.0756 77.5244 26.7095 76.8744 27.6672 77.3829C28.6249 77.89 27.6672 80.0332 27.6672 80.0332C27.6672 80.0332 28.7 80.3781 28.8503 81.4615C29.0197 82.682 27.0469 82.6834 26.1452 83.5855C25.2436 84.4876 22.2011 86.7635 21.186 88.1343C20.1738 89.5022 18.0891 91.5319 18.0891 91.5319Z" fill="#F68080"/>
<path d="M10.5943 75.6348C10.5943 75.6348 8.62149 77.8001 8.00269 79.734" stroke="#F68080" stroke-width="0.5" stroke-miterlimit="10" stroke-linecap="round"/>
<path d="M25.0756 77.5244C25.0756 77.5244 17.9197 82.2309 16.3977 84.2031" stroke="#F68080" stroke-width="0.5" stroke-miterlimit="10" stroke-linecap="round"/>
<path d="M27.6688 80.0317C27.6688 80.0317 20.7383 83.646 18.8789 86.6028" stroke="#F68080" stroke-width="0.5" stroke-miterlimit="10" stroke-linecap="round"/>
<path d="M5.74847 169.725C6.2494 178.356 6.2494 205.065 6.2494 205.065C6.2494 205.065 20.1783 208.624 27.6717 204.227C27.6717 204.227 26.9409 189.681 27.6717 179.71C27.8205 177.734 28.0768 175.366 28.4157 172.81C29.7815 162.446 32.2965 149.267 32.2965 149.267L43.4408 121.354C43.4408 121.354 40.858 119.622 36.7872 118.052C31.162 115.887 22.7095 114.034 14.3645 117.47C0.00099659 123.384 5.24753 161.093 5.74847 169.725Z" fill="#3668B2"/>
<path opacity="0.5" d="M28.4143 172.81C29.7801 162.446 32.2951 149.267 32.2951 149.267L43.4394 121.354C43.4394 121.354 40.8566 119.622 36.7858 118.052C32.9183 120.203 29.0641 124.222 27.6703 131.676C25.7505 141.934 27.0765 160.105 28.4143 172.81Z" fill="#3668B2"/>
<path d="M76.0722 116.45C76.0722 116.45 71.3384 111.939 64.0705 112.672C56.801 113.405 41.0791 113.744 33.8111 124.905C26.5417 136.067 32.2892 175.304 32.4586 183.76C32.6281 192.216 32.628 205.577 32.628 205.577C32.628 205.577 45.8232 207.099 55.8773 205.577C55.8773 205.577 58.3245 144.692 57.6482 141.478C57.6482 141.478 70.3262 140.125 75.0601 134.713C79.7924 129.303 76.0722 116.45 76.0722 116.45Z" fill="#3668B2"/>
</svg>
