<svg width="580" height="215" viewBox="0 0 580 215" fill="none" xmlns="http://www.w3.org/2000/svg">
<path d="M568.485 28.7885H11.593V214.129H568.485V28.7885Z" fill="#D1EEFC"/>
<path d="M579.715 188.134H0.364746V214.131H579.715V188.134Z" fill="white"/>
<path opacity="0.5" d="M568.485 35.5719H11.593V49.9242H568.485V35.5719Z" fill="#75C6EF"/>
<path d="M568.485 28.7885H11.593V43.1408H568.485V28.7885Z" fill="white"/>
<path opacity="0.5" d="M472.53 28.7885H79.6787V214.129H472.53V28.7885Z" fill="#75C6EF"/>
<path d="M466.093 -0.00170898H84.52V214.54H466.093V-0.00170898Z" fill="#D1EEFC"/>
<path opacity="0.5" d="M466.093 6.37036H84.52V19.1146H466.093V6.37036Z" fill="#75C6EF"/>
<path opacity="0.5" d="M466.093 107.27H84.52V120.014H466.093V107.27Z" fill="#75C6EF"/>
<path d="M466.093 0.474365H84.52V13.2186H466.093V0.474365Z" fill="white"/>
<path d="M466.093 101.374H84.52V114.118H466.093V101.374Z" fill="white"/>
</svg>
