<svg width="97" height="175" viewBox="0 0 97 175" fill="none" xmlns="http://www.w3.org/2000/svg">
<path d="M86.6501 135.457H10.0161V145.548H86.6501V135.457Z" fill="#D3A459"/>
<path d="M16.8907 135.457H10.0161V145.548H16.8907V135.457Z" fill="#D3A459"/>
<path d="M86.65 135.457H79.7754V145.548H86.65V135.457Z" fill="#D3A459"/>
<path d="M90.8209 16.7856V90.5549H5.84497V16.7856C5.84497 7.93274 12.5899 0.764648 20.8921 0.764648H75.7723C84.0878 0.766122 90.8209 7.93421 90.8209 16.7856Z" fill="#EFCB72"/>
<path d="M90.8195 78.39H5.84497V90.5549H90.8195V78.39Z" fill="#EFCB72"/>
<path d="M13.8026 92.6567H6.23706V174.616H13.8026V92.6567Z" fill="#D3A459"/>
<path d="M90.4381 92.6567H82.8711V174.616H90.4381V92.6567Z" fill="#D3A459"/>
<path d="M13.8026 92.6567H6.23706V103.401H13.8026V92.6567Z" fill="#D3A459"/>
<path d="M90.4381 92.6567H82.8711V103.401H90.4381V92.6567Z" fill="#D3A459"/>
<path d="M89.2726 98.1695H7.40237C3.32713 98.1695 0.0253906 94.8648 0.0253906 90.7892V90.3234C0.0253906 86.2463 3.3286 82.9431 7.40237 82.9431H89.2726C93.3463 82.9431 96.6495 86.2478 96.6495 90.3234V90.7892C96.6495 94.8648 93.3463 98.1695 89.2726 98.1695Z" fill="#D3A459"/>
</svg>
