<svg width="82" height="120" viewBox="0 0 82 120" fill="none" xmlns="http://www.w3.org/2000/svg">
<path d="M81.1551 0.604614H0.733154V119.382H81.1551V0.604614Z" fill="white"/>
<path opacity="0.5" d="M70.768 10.7576H11.1187V21.7566H70.768V10.7576Z" fill="#75C6EF"/>
<path opacity="0.5" d="M70.768 32.2513H11.1187V34.8028H70.768V32.2513Z" fill="#75C6EF"/>
<path opacity="0.5" d="M70.768 37.7523H11.1187V40.3038H70.768V37.7523Z" fill="#75C6EF"/>
<path opacity="0.5" d="M70.768 43.2518H11.1187V45.8033H70.768V43.2518Z" fill="#75C6EF"/>
<path opacity="0.5" d="M70.768 48.7513H11.1187V51.3028H70.768V48.7513Z" fill="#75C6EF"/>
<path opacity="0.5" d="M70.768 54.2509H11.1187V56.8024H70.768V54.2509Z" fill="#75C6EF"/>
<path opacity="0.5" d="M70.768 59.7504H11.1187V62.3019H70.768V59.7504Z" fill="#75C6EF"/>
<path opacity="0.5" d="M70.768 65.2499H11.1187V67.8014H70.768V65.2499Z" fill="#75C6EF"/>
<path opacity="0.5" d="M70.768 85.9979H11.1187V88.5494H70.768V85.9979Z" fill="#75C6EF"/>
<path opacity="0.5" d="M70.768 93.1571H11.1187V95.7086H70.768V93.1571Z" fill="#75C6EF"/>
<path opacity="0.5" d="M70.768 100.315H11.1187V102.866H70.768V100.315Z" fill="#75C6EF"/>
</svg>
