<svg width="173" height="367" viewBox="0 0 173 367" fill="none" xmlns="http://www.w3.org/2000/svg">
<path d="M172.167 0.604614H0.971191V366.024H172.167V0.604614Z" fill="#D3A459"/>
<path d="M164.8 13.7056H8.33789V61.7963H164.8V13.7056Z" fill="#EFCB72"/>
<path d="M164.8 10.7576H8.33789V58.8483H164.8V10.7576Z" fill="#EFCB72"/>
<path d="M91.9702 21.7581C91.9702 24.7429 89.551 27.1632 86.5675 27.1632C83.584 27.1632 81.1648 24.7429 81.1648 21.7581C81.1648 18.7732 83.584 16.3529 86.5675 16.3529C89.551 16.3529 91.9702 18.7718 91.9702 21.7581Z" fill="#EFCB72"/>
<path d="M91.9702 20.2841C91.9702 23.2689 89.551 25.6892 86.5675 25.6892C83.584 25.6892 81.1648 23.2689 81.1648 20.2841C81.1648 17.2992 83.584 14.8789 86.5675 14.8789C89.551 14.8789 91.9702 17.2978 91.9702 20.2841Z" fill="white"/>
<path d="M164.8 75.22H8.33789V123.311H164.8V75.22Z" fill="#EFCB72"/>
<path d="M164.8 72.272H8.33789V120.363H164.8V72.272Z" fill="#EFCB72"/>
<path d="M91.9702 83.271C91.9702 86.2559 89.551 88.6762 86.5675 88.6762C83.584 88.6762 81.1648 86.2559 81.1648 83.271C81.1648 80.2862 83.584 77.8658 86.5675 77.8658C89.551 77.8658 91.9702 80.2862 91.9702 83.271Z" fill="#EFCB72"/>
<path d="M91.9702 81.797C91.9702 84.7819 89.551 87.2022 86.5675 87.2022C83.584 87.2022 81.1648 84.7819 81.1648 81.797C81.1648 78.8122 83.584 76.3918 86.5675 76.3918C89.551 76.3918 91.9702 78.8122 91.9702 81.797Z" fill="white"/>
<path d="M164.8 136.733H8.33789V184.824H164.8V136.733Z" fill="#EFCB72"/>
<path d="M164.8 133.785H8.33789V181.876H164.8V133.785Z" fill="#EFCB72"/>
<path d="M86.5675 150.191C89.5513 150.191 91.9702 147.771 91.9702 144.785C91.9702 141.8 89.5513 139.38 86.5675 139.38C83.5837 139.38 81.1648 141.8 81.1648 144.785C81.1648 147.771 83.5837 150.191 86.5675 150.191Z" fill="#EFCB72"/>
<path d="M86.5675 148.717C89.5513 148.717 91.9702 146.297 91.9702 143.311C91.9702 140.326 89.5513 137.906 86.5675 137.906C83.5837 137.906 81.1648 140.326 81.1648 143.311C81.1648 146.297 83.5837 148.717 86.5675 148.717Z" fill="white"/>
<path d="M164.8 198.247H8.33789V246.338H164.8V198.247Z" fill="#EFCB72"/>
<path d="M164.8 195.299H8.33789V243.39H164.8V195.299Z" fill="#EFCB72"/>
<path d="M86.5675 211.703C89.5513 211.703 91.9702 209.284 91.9702 206.298C91.9702 203.313 89.5513 200.893 86.5675 200.893C83.5837 200.893 81.1648 203.313 81.1648 206.298C81.1648 209.284 83.5837 211.703 86.5675 211.703Z" fill="#EFCB72"/>
<path d="M86.5675 210.229C89.5513 210.229 91.9702 207.81 91.9702 204.824C91.9702 201.839 89.5513 199.419 86.5675 199.419C83.5837 199.419 81.1648 201.839 81.1648 204.824C81.1648 207.81 83.5837 210.229 86.5675 210.229Z" fill="white"/>
<path d="M164.8 259.762H8.33789V307.853H164.8V259.762Z" fill="#EFCB72"/>
<path d="M164.8 256.814H8.33789V304.905H164.8V256.814Z" fill="#EFCB72"/>
<path d="M91.9702 267.813C91.9702 270.798 89.551 273.218 86.5675 273.218C83.584 273.218 81.1648 270.798 81.1648 267.813C81.1648 264.828 83.584 262.408 86.5675 262.408C89.551 262.408 91.9702 264.828 91.9702 267.813Z" fill="#EFCB72"/>
<path d="M91.9702 266.339C91.9702 269.324 89.551 271.744 86.5675 271.744C83.584 271.744 81.1648 269.324 81.1648 266.339C81.1648 263.354 83.584 260.934 86.5675 260.934C89.551 260.934 91.9702 263.354 91.9702 266.339Z" fill="white"/>
</svg>
