<svg width="95" height="389" viewBox="0 0 95 389" fill="none" xmlns="http://www.w3.org/2000/svg">
<path d="M94.8053 0.878784H0.125977V388.836H94.8053V0.878784Z" fill="#EFC356"/>
<path d="M94.8053 8.24878H7.49268V381.466H94.8053V8.24878Z" fill="#D39B40"/>
<path d="M40.7842 159.579V202.478C40.7842 203.592 39.909 204.468 38.7952 204.468H24.2165C23.1233 204.468 22.2275 203.592 22.2275 202.478V159.579C22.2275 158.485 23.1218 157.589 24.2165 157.589H38.7952C39.909 157.589 40.7842 158.485 40.7842 159.579Z" fill="#EFC356"/>
<path opacity="0.5" d="M40.7843 169.149V177.109H31.5156C27.4978 177.109 26.8613 169.149 26.8613 169.149H40.7843Z" fill="#B3752B"/>
<path d="M36.1506 169.154C36.1506 171.718 34.0732 173.797 31.5096 173.797C28.946 173.797 26.8687 171.718 26.8687 169.154C26.8687 166.589 28.946 164.511 31.5096 164.511C34.0732 164.511 36.1506 166.59 36.1506 169.154Z" fill="#9B5E1C"/>
<path d="M58.5127 172.896H33.2613C31.1957 172.896 29.5205 171.22 29.5205 169.154C29.5205 167.087 31.1957 165.411 33.2613 165.411H58.5127C60.5783 165.411 62.2535 167.087 62.2535 169.154C62.2535 171.222 60.5783 172.896 58.5127 172.896Z" fill="#B3752B"/>
<path d="M31.5095 196.389C30.7802 196.389 30.1836 195.792 30.1836 195.062V191.58C30.1836 190.851 30.7802 190.254 31.5095 190.254C32.2388 190.254 32.8356 190.851 32.8356 191.58V195.062C32.8356 195.792 32.2388 196.389 31.5095 196.389Z" fill="#9B5E1C"/>
</svg>
