<svg width="191" height="345" viewBox="0 0 191 345" fill="none" xmlns="http://www.w3.org/2000/svg">
<path opacity="0.3" d="M95.5201 344.25C147.772 344.25 190.13 339.414 190.13 333.448C190.13 327.483 147.772 322.647 95.5201 322.647C43.2683 322.647 0.909912 327.483 0.909912 333.448C0.909912 339.414 43.2683 344.25 95.5201 344.25Z" fill="#CCCCCC"/>
<path d="M89.7401 60.5092L69.8943 45.7692L73.4597 38.0601L77.1431 30.071L89.4454 32.1936L89.5927 46.0345L89.7401 60.5092Z" fill="#F68080"/>
<path opacity="0.7" d="M89.5927 46.0345C82.0787 44.0298 76.6863 40.5954 73.4597 38.0601L77.143 30.071L89.4454 32.1936L89.5927 46.0345Z" fill="#F68080"/>
<path d="M100.292 22.2588C100.442 31.6217 94.5961 39.3012 87.2707 39.4015C79.9276 39.5017 73.8663 32.0211 73.7322 22.6583C73.6482 17.5612 75.347 12.9785 78.0786 9.83007C78.1287 9.76374 78.1787 9.71362 78.2288 9.64729C80.5096 7.09874 83.4902 5.54957 86.7713 5.49946C90.1511 5.44934 93.2657 7.0162 95.6304 9.64729C95.6967 9.71362 95.7468 9.77995 95.8131 9.84775C97.6282 11.8966 98.994 14.5631 99.7101 17.5951C100.043 18.9438 100.243 20.3441 100.276 21.8093C100.292 21.9596 100.292 22.11 100.292 22.2588Z" fill="#F68080"/>
<path opacity="0.7" d="M100.276 21.8093C85.2051 21.6089 78.3275 14.9464 78.6281 14.6457L81.4083 9.64734H95.6289C95.6952 9.71367 95.7453 9.78 95.8116 9.84781C97.6268 11.8967 98.9926 14.5631 99.7086 17.5951C100.042 18.9439 100.242 20.3442 100.276 21.8093Z" fill="#F68080"/>
<path d="M156.497 329.308C149.44 331.799 121.24 334.423 121.24 334.423C121.24 334.423 120.827 333.155 120.459 331.268C119.988 328.866 118.986 323.206 119.354 319.093C119.487 317.693 119.752 316.484 120.268 315.614C123.494 310.205 138.876 306.461 138.876 306.461C139.539 306.078 142.515 312.386 154.257 312.46H154.302C160.976 312.504 164.659 312.195 166.913 312.49C168.652 312.711 169.536 313.285 170.287 314.656C172.026 317.796 163.525 326.802 156.497 329.308Z" fill="#52C4A7"/>
<path d="M154.257 312.46C143.959 320.42 127.325 319.904 119.354 319.093C119.487 317.693 119.752 316.484 120.267 315.614C123.494 310.205 138.876 306.461 138.876 306.461C139.539 306.078 142.515 312.386 154.257 312.46Z" fill="#52C4A7"/>
<path d="M70.9845 333.538C71.456 337.503 63.7799 338.845 56.428 336.825L20.6555 325.785C20.6555 325.785 20.5377 324.901 21.3185 322.94C21.5985 322.203 22.011 321.319 22.5856 320.287C23.6906 318.312 26.652 314.303 29.2451 310.883C31.7055 307.655 33.8566 304.943 33.8566 304.943L55.1462 312.489C55.1462 312.489 55.4999 315.098 56.5901 318.164C57.5773 320.936 59.1832 324.09 61.7025 326.006C65.8426 329.146 68.8924 329.558 70.2626 331.489C70.6457 332.02 70.8814 332.669 70.9845 333.538Z" fill="#52C4A7"/>
<path d="M56.5902 318.164C43.9048 319.904 33.8861 314.229 29.2451 310.883C31.7056 307.655 33.8567 304.943 33.8567 304.943L55.1463 312.489C55.1463 312.489 55.5014 315.098 56.5902 318.164Z" fill="#52C4A7"/>
<path d="M120.455 331.27C120.823 333.149 121.241 334.421 121.241 334.421C121.241 334.421 149.447 331.803 156.494 329.306C163.532 326.804 172.027 317.796 170.296 314.656C169.543 313.288 168.652 312.715 166.919 312.487C166.704 313.769 166.52 315.43 166.741 316.707C167.162 319.117 158.886 326.26 147.978 328.325C139.901 329.856 126.744 330.851 120.455 331.27Z" fill="#B9E5D9"/>
<path d="M20.6599 325.778L56.4251 336.828C63.7874 338.84 71.4589 337.496 70.9889 333.541C70.8858 332.674 70.6443 332.027 70.2568 331.494C68.695 331.52 66.2522 331.887 64.2529 333.616C64.2529 333.616 60.8745 335.158 53.9175 333.008L21.3126 322.934C20.5391 324.898 20.6599 325.778 20.6599 325.778Z" fill="#B9E5D9"/>
<path d="M26.4309 307.413C26.4309 307.413 40.4835 317.672 58.3345 312.352C58.3345 312.352 61.7187 288.03 68.1822 273.971C72.3606 264.882 80.0322 241.323 84.9311 225.812C87.6052 217.347 89.4512 211.274 89.4512 211.274C89.4512 211.274 85.1211 198.856 81.9608 187.875C79.4621 179.181 77.6926 171.398 79.3707 171.376C82.7049 171.338 65.3402 168.564 61.0484 167.88C60.4487 167.788 60.1069 167.735 60.1069 167.735C60.7227 169.772 58.7087 178.731 56.7418 188.604C55.5263 194.631 54.3344 200.999 53.7568 206.334C52.2378 220.394 26.4309 307.413 26.4309 307.413Z" fill="#52C4A7"/>
<path d="M61.0498 167.881L62.7442 179.19C62.7442 179.19 71.73 206.168 84.9326 225.812C87.6067 217.347 89.4527 211.274 89.4527 211.274C89.4527 211.274 85.1226 198.856 81.9623 187.875C79.4635 179.181 77.694 171.398 79.3721 171.376C82.7063 171.338 65.3416 168.565 61.0498 167.881Z" fill="#52C4A7"/>
<path d="M56.7434 188.604C64.9175 189.204 73.5909 188.794 81.9624 187.875C79.4636 179.181 77.6941 171.398 79.3723 171.376C83.1705 171.33 60.1085 167.735 60.1085 167.735C60.7229 169.774 58.7103 178.733 56.7434 188.604Z" fill="#52C4A7"/>
<path d="M60.1083 172.896C60.6019 175.586 63.9596 181.719 68.2514 188.84C76.0748 201.789 87.0055 218.015 89.4527 222.673C93.2436 229.892 102.754 267.51 108.534 287.269C114.306 307.028 116.225 316.922 116.225 316.922C138.815 316.922 145.322 309.138 145.968 308.849C145.164 306.576 134.036 259.888 127.441 238.632C122.906 224.01 117.649 197.845 114.626 181.893C113.092 173.799 112.135 168.335 112.135 168.335C112.135 168.335 58.6954 165.297 60.1083 172.896Z" fill="#52C4A7"/>
<path d="M60.1083 172.896C60.6019 175.586 63.9596 181.719 68.2514 188.84C85.404 188.392 103.103 184.759 114.626 181.895C113.092 173.801 112.135 168.337 112.135 168.337C112.135 168.337 58.6954 165.297 60.1083 172.896Z" fill="#52C4A7"/>
<path d="M127.443 176.793C127.443 176.793 85.9095 183.411 55.5293 178.857C55.5293 178.857 51.9786 111.465 51.4777 91.7138C51.4482 90.6525 51.4777 89.5912 51.5366 88.5447C51.4924 87.2476 51.4629 85.862 51.4629 84.3585C51.4482 58.4898 63.1907 45.4597 66.4173 42.3643C66.9477 41.8484 67.2423 41.6125 67.2423 41.6125C68.0232 41.701 68.7893 41.8337 69.5407 41.9663C80.576 44.0447 88.9298 50.943 94.0128 56.4115C95.2062 57.3549 96.3849 58.313 97.5636 59.2858C108.702 68.3951 113.77 77.5192 118.824 95.7673C123.893 114.001 127.443 176.793 127.443 176.793Z" fill="#52C4A7"/>
<path d="M105.741 91.139C103.914 84.6091 108.113 93.6005 100.201 76.3842C93.4087 61.6 72.9146 45.9608 66.4172 42.3643C66.9476 41.8484 67.2423 41.6125 67.2423 41.6125C68.0232 41.701 68.7893 41.8337 69.5407 41.9663L78.4102 47.1548C78.4102 47.1548 93.0256 58.7846 105.741 75.3671C118.47 91.9349 107.567 97.6688 105.741 91.139Z" fill="#52C4A7"/>
<path d="M80.6378 48.0038C81.6161 48.5433 92.8783 54.339 96.8651 76.3798C100.853 98.4205 96.8651 110.391 96.8651 110.391C96.8651 110.391 83.8895 102.222 62.7456 109.061C62.7456 109.061 53.1189 78.9106 70.6235 53.0434L80.6378 48.0038Z" fill="#52C4A7"/>
<path d="M68.3192 109.705C68.4946 115.336 68.8732 122.001 69.7086 126.538C71.4177 135.848 85.2345 177.645 85.2345 177.645C84.2474 182.775 86.2629 191.075 86.2629 191.075C86.2629 191.075 85.3141 197.059 86.2629 198.389C87.2132 199.718 89.4498 201.014 89.4498 201.014C91.3415 203.294 93.2554 203.863 93.2554 203.863C94.5843 206.333 98.0025 205.573 98.0025 205.573C98.0025 205.573 100.092 207.283 102.181 205.573C104.27 203.863 105.219 192.463 103.32 188.094C101.421 183.724 99.5215 180.449 99.5215 180.449C94.963 160.264 88.8795 123.498 88.8795 123.498C88.8795 121.179 89.1536 113.694 89.4336 106.65C89.7223 99.2562 90.0184 92.3402 90.0184 92.3402L68.1866 98.9894C68.1896 98.9909 68.1366 103.778 68.3192 109.705Z" fill="#F68080"/>
<path opacity="0.7" d="M68.3192 109.705C75.3676 107.35 84.1575 106.772 89.4365 106.65C89.7253 99.2562 90.0214 92.3402 90.0214 92.3402L68.1895 98.9894C68.1895 98.9894 68.1365 103.778 68.3192 109.705Z" fill="#F68080"/>
<path d="M111.619 90.962C111.604 90.9768 111.589 90.9915 111.56 91.0063C109.394 92.097 105.283 85.8178 105.829 84.2848C106.359 82.7519 108.392 82.8698 108.392 82.8698L107.39 80.8504L105.74 77.5339L108.098 77.5192L109.836 81.042L112.842 87.1591C113.519 88.5447 113.004 90.2545 111.619 90.962Z" fill="#CCCCCC"/>
<path d="M109.836 81.042C108.937 81.3368 108.098 81.1747 107.39 80.8504L105.74 77.5339L108.098 77.5192L109.836 81.042Z" fill="#CCCCCC"/>
<path d="M107.329 79.9778C107.533 79.969 107.74 79.9189 107.936 79.823C108.689 79.4516 108.998 78.5407 108.628 77.7875C95.7277 51.5724 68.913 38.7736 67.3115 38.5776C66.479 38.4744 65.7203 39.0684 65.6186 39.8997C65.5199 40.7075 66.0709 41.443 66.8621 41.5816C69.299 42.2685 94.1129 55.1704 105.902 79.1288C106.177 79.6874 106.747 80.0014 107.329 79.9778Z" fill="#231F20"/>
<path opacity="0.7" d="M99.5568 196.235C99.5568 196.235 99.6761 201.649 98.0054 205.574" stroke="#F68080" stroke-width="0.5" stroke-miterlimit="10" stroke-linecap="round"/>
<path opacity="0.7" d="M94.4915 196.235C94.4915 196.235 94.6919 199.702 93.2568 203.865" stroke="#F68080" stroke-width="0.5" stroke-miterlimit="10" stroke-linecap="round"/>
<path opacity="0.7" d="M89.8873 194.853C89.8873 194.853 90.3956 197.043 89.4512 201.014" stroke="#F68080" stroke-width="0.5" stroke-miterlimit="10" stroke-linecap="round"/>
<path d="M93.3586 105.008C93.3586 105.008 97.7462 66.131 83.6773 51.8391C69.5922 37.531 58.3433 78.4905 64.3354 105.331C64.3354 105.331 73.2417 101.324 93.3586 105.008Z" fill="#52C4A7"/>
<path d="M79.3722 29.3046C79.3722 29.3046 90.7715 26.8887 99.5393 28.2197C99.5393 28.2197 97.8008 36.1572 94.555 38.5657C91.3078 40.9743 83.5049 40.905 80.3122 38.0528C77.1195 35.2006 79.3722 29.3046 79.3722 29.3046Z" fill="#52C4A7"/>
<path d="M99.6541 6.65366C99.4183 6.28958 99.1605 5.94465 98.8835 5.61595C95.2341 1.29565 88.2564 0.150355 83.026 1.48285C75.8185 3.31945 70.6044 8.85728 67.6091 15.3856C66.4746 17.859 65.6834 20.4813 65.1986 23.1595C64.5548 25.6152 64.0067 29.3474 64.6844 33.9787C64.6844 33.9787 66.9873 38.1869 76.4387 39.913C78.5618 40.5011 80.7762 40.7605 82.9744 40.6058C82.0875 39.3735 81.7855 37.8229 81.5866 36.3179C80.7424 29.9532 81.3729 23.4116 83.3354 17.2989C87.113 18.4147 95.9044 20.4591 103.505 19.1915C103.33 14.8108 102.038 10.3313 99.6541 6.65366Z" fill="#8F4526"/>
</svg>
